<svg width="206" height="87" viewBox="0 0 206 87" fill="none" xmlns="http://www.w3.org/2000/svg">
<path d="M10.7149 44.8032L9.96446 44.9552L10.0335 37.9996L11.2947 37.7442L14.0609 43.6643L14.0004 43.7142L14.0659 37.1829L14.8164 37.0309L14.7474 43.9865L13.468 44.2456L10.7127 38.3327L10.7786 38.2864L10.7149 44.8032ZM18.5624 43.3079C18.1254 43.3965 17.7243 43.3757 17.3591 43.2457C16.994 43.1158 16.6831 42.8822 16.4266 42.5451C16.1725 42.2044 15.9914 41.7674 15.8834 41.2339C15.7698 40.6733 15.7435 40.1171 15.8042 39.5651C15.868 39.0126 16.0124 38.5017 16.2374 38.0326C16.4654 37.5629 16.7711 37.1668 17.1545 36.8445C17.5372 36.5191 17.9923 36.303 18.5197 36.1962C18.9598 36.1071 19.362 36.126 19.7266 36.2529C20.0912 36.3799 20.3999 36.6107 20.6528 36.9454C20.9057 37.2801 21.0861 37.7142 21.1942 38.2476C21.3077 38.8082 21.3329 39.3662 21.2697 39.9218C21.2089 40.4738 21.0649 40.9861 20.8374 41.4589C20.61 41.9316 20.3053 42.3322 19.9231 42.6606C19.5434 42.9853 19.0898 43.2011 18.5624 43.3079ZM18.5073 42.5944C18.9292 42.5089 19.2831 42.3274 19.5688 42.0499C19.854 41.7694 20.0739 41.43 20.2285 41.0316C20.3831 40.6332 20.4756 40.2066 20.5058 39.7518C20.5385 39.2934 20.5106 38.8457 20.4221 38.4087C20.3403 38.0048 20.2092 37.6831 20.0289 37.4435C19.8516 37.2034 19.6384 37.0411 19.3891 36.9566C19.1392 36.8692 18.8636 36.856 18.5622 36.917C18.1433 37.0019 17.7909 37.183 17.5052 37.4605C17.2194 37.738 16.9989 38.0745 16.8436 38.4699C16.6884 38.8652 16.5957 39.2903 16.5654 39.7451C16.5346 40.1969 16.5637 40.6428 16.6528 41.0828C16.7761 41.6916 17.0039 42.1192 17.3362 42.3656C17.6709 42.6085 18.0612 42.6847 18.5073 42.5944ZM26.9144 38.9621C26.9057 39.8643 26.7042 40.5734 26.3098 41.0894C25.9149 41.6023 25.3723 41.9287 24.6822 42.0685C24.0613 42.1942 23.5579 42.1487 23.1721 41.932C22.7862 41.7152 22.5346 41.3175 22.4174 40.7388C22.3692 40.5007 22.3406 40.2508 22.3315 39.9891C22.3224 39.7274 22.3201 39.3828 22.3245 38.9552L22.373 35.5005L23.1461 35.3439L23.1022 38.8683C23.0986 39.1451 23.0974 39.3791 23.0985 39.5703C23.0989 39.7584 23.1045 39.9251 23.1151 40.0705C23.1281 40.2121 23.1492 40.3553 23.1785 40.5C23.2615 40.9099 23.419 41.176 23.6509 41.2985C23.8827 41.4209 24.1946 41.4425 24.5864 41.3631C25.0836 41.2624 25.466 41.036 25.7335 40.6837C26.0004 40.3285 26.1369 39.802 26.1431 39.1042L26.184 34.7286L26.9525 34.573L26.9144 38.9621ZM30.1288 40.9654C29.7461 41.0429 29.4021 41.0561 29.0968 41.005C28.7909 40.9508 28.5395 40.8323 28.3424 40.6495C28.1448 40.4636 28.0136 40.211 27.9489 39.8915C27.919 39.7438 27.9021 39.6061 27.8981 39.4782C27.8972 39.3498 27.8999 39.2002 27.9061 39.0295L28.6746 38.8739C28.6672 39.0385 28.6654 39.1769 28.6693 39.2891C28.6762 39.4006 28.6903 39.5092 28.7117 39.6146C28.7764 39.9341 28.9216 40.14 29.1474 40.2323C29.3762 40.324 29.6819 40.3311 30.0647 40.2536C30.3902 40.1877 30.6722 40.0851 30.9106 39.9458C31.1485 39.8035 31.3227 39.6255 31.4331 39.4117C31.5429 39.195 31.5682 38.9404 31.509 38.6481C31.451 38.3618 31.2859 38.1505 31.0136 38.0143C30.7443 37.8774 30.3961 37.7848 29.969 37.7364C29.6439 37.6956 29.344 37.6245 29.0693 37.5233C28.7971 37.4184 28.5682 37.2718 28.3826 37.0835C28.2 36.8946 28.0797 36.657 28.0217 36.3707C27.9564 36.0482 27.9602 35.7494 28.0331 35.4742C28.109 35.1984 28.2411 34.952 28.4293 34.7351C28.6176 34.5181 28.8505 34.336 29.1282 34.1888C29.4052 34.0386 29.7155 33.9287 30.0591 33.8591C30.4418 33.7816 30.7843 33.7687 31.0866 33.8204C31.3913 33.8685 31.6415 33.981 31.8373 34.1578C32.0331 34.3346 32.1622 34.5767 32.2244 34.8841C32.2513 35.0167 32.2676 35.1515 32.2734 35.2884C32.2791 35.4253 32.2801 35.5694 32.2762 35.7208L31.5032 35.8773C31.5083 35.732 31.5074 35.6035 31.5004 35.492C31.4959 35.3768 31.4827 35.265 31.4607 35.1565C31.3985 34.8491 31.2542 34.6555 31.0278 34.5759C30.8015 34.4962 30.4984 34.4948 30.1187 34.5718C29.8113 34.634 29.5453 34.7302 29.3207 34.8605C29.096 34.9907 28.9321 35.1572 28.8289 35.3601C28.725 35.5599 28.7012 35.7985 28.7573 36.0758C28.8214 36.3922 28.9954 36.6158 29.2791 36.7466C29.5623 36.8744 29.9249 36.9688 30.3671 37.0298C30.7122 37.076 31.016 37.151 31.2786 37.2547C31.5412 37.3583 31.755 37.5001 31.9201 37.6801C32.0882 37.8594 32.2 38.0861 32.2555 38.3604C32.3453 38.8034 32.3088 39.2046 32.1463 39.5638C31.9861 39.9194 31.7297 40.2176 31.3768 40.4585C31.0271 40.6987 30.6111 40.8677 30.1288 40.9654ZM36.3117 39.619L35.5612 39.771L35.6302 32.8155L36.8915 32.56L39.6577 38.4801L39.5972 38.53L39.6627 31.9987L40.4132 31.8468L40.3442 38.8023L39.0648 39.0614L36.3095 33.1485L36.3754 33.1022L36.3117 39.619ZM41.9679 32.3931C41.8353 32.42 41.7261 32.4076 41.6403 32.3559C41.5546 32.3043 41.5001 32.2212 41.4769 32.1066C41.4409 31.9288 41.4721 31.7656 41.5707 31.617C41.6722 31.4678 41.824 31.3728 42.0259 31.3319C42.1856 31.2995 42.3168 31.32 42.4195 31.3933C42.5222 31.4667 42.5888 31.5787 42.6194 31.7294C42.6615 31.9373 42.6433 32.1418 42.5648 32.3428C42.4863 32.5438 42.3685 32.7292 42.2115 32.8991C42.0576 33.0683 41.8869 33.2095 41.6997 33.3228L41.6015 33.1168C41.7044 33.052 41.8055 32.9703 41.9048 32.8718C42.0041 32.7732 42.0861 32.6672 42.151 32.5537C42.2189 32.4395 42.2545 32.3288 42.2578 32.2214C42.247 32.2456 42.2142 32.2773 42.1595 32.3167C42.1071 32.3524 42.0432 32.3778 41.9679 32.3931ZM43.4879 38.1656L45.3932 30.8193L46.5957 30.5758L48.3522 37.1804L47.5882 37.3352L46.0192 31.2149L46.0282 31.2131L44.3197 37.9971L43.4879 38.1656ZM44.468 36.127L44.4573 35.4232L47.4364 34.8199L47.4472 35.5236L44.468 36.127ZM50.2127 36.8413L48.4661 30.2158L49.2979 30.0473L50.7962 36.0972L50.7464 36.1072L52.3313 29.4329L53.1993 29.2571L51.3384 36.6133L50.2127 36.8413ZM56.3351 35.6577C55.8981 35.7463 55.497 35.7255 55.1318 35.5955C54.7667 35.4656 54.4558 35.232 54.1993 34.895C53.9452 34.5542 53.7641 34.1172 53.6561 33.5837C53.5425 33.0231 53.5161 32.4669 53.5769 31.9149C53.6407 31.3624 53.7851 30.8515 54.0101 30.3824C54.2381 29.9127 54.5438 29.5166 54.9272 29.1943C55.3099 28.8689 55.765 28.6528 56.2924 28.546C56.7325 28.4569 57.1347 28.4758 57.4993 28.6027C57.8639 28.7297 58.1726 28.9605 58.4255 29.2952C58.6784 29.6299 58.8588 30.064 58.9669 30.5974C59.0804 31.158 59.1056 31.716 59.0424 32.2716C58.9816 32.8236 58.8375 33.3359 58.6101 33.8087C58.3827 34.2814 58.078 34.682 57.6958 35.0104C57.3161 35.3351 56.8625 35.5509 56.3351 35.6577ZM56.28 34.9442C56.7019 34.8587 57.0558 34.6772 57.3415 34.3997C57.6267 34.1192 57.8466 33.7798 58.0012 33.3814C58.1558 32.983 58.2483 32.5564 58.2785 32.1016C58.3112 31.6432 58.2833 31.1955 58.1947 30.7585C58.113 30.3546 57.9819 30.0329 57.8016 29.7933C57.6243 29.5532 57.4111 29.3909 57.1618 29.3064C56.9119 29.219 56.6363 29.2058 56.3349 29.2668C55.916 29.3517 55.5636 29.5328 55.2779 29.8103C54.9921 30.0878 54.7716 30.4243 54.6163 30.8197C54.4611 31.2151 54.3684 31.6401 54.3381 32.0949C54.3073 32.5467 54.3364 32.9926 54.4255 33.4326C54.5488 34.0414 54.7766 34.469 55.1089 34.7154C55.4436 34.9583 55.8339 35.0345 56.28 34.9442ZM60.8136 34.6566L60.0632 34.8086L60.1322 27.853L61.3935 27.5976L64.1596 33.5177L64.0991 33.5676L64.1646 27.0363L64.9151 26.8843L64.8461 33.8399L63.5667 34.099L60.8114 28.1861L60.8773 28.1398L60.8136 34.6566ZM68.087 33.2776C67.7042 33.3551 67.3602 33.3683 67.0549 33.3172C66.749 33.2631 66.4976 33.1446 66.3005 32.9617C66.1029 32.7759 65.9717 32.5232 65.907 32.2037C65.8771 32.0561 65.8602 31.9183 65.8562 31.7905C65.8553 31.662 65.858 31.5125 65.8642 31.3418L66.6327 31.1861C66.6253 31.3508 66.6235 31.4892 66.6274 31.6013C66.6343 31.7129 66.6484 31.8214 66.6698 31.9269C66.7345 32.2464 66.8797 32.4522 67.1055 32.5446C67.3343 32.6363 67.6401 32.6434 68.0228 32.5659C68.3483 32.4999 68.6303 32.3973 68.8688 32.258C69.1066 32.1157 69.2808 31.9377 69.3912 31.724C69.501 31.5072 69.5264 31.2527 69.4671 30.9603C69.4092 30.674 69.244 30.4627 68.9717 30.3265C68.7024 30.1897 68.3542 30.097 67.9271 30.0486C67.602 30.0078 67.3021 29.9368 67.0274 29.8355C66.7552 29.7306 66.5263 29.5841 66.3407 29.3957C66.1581 29.2068 66.0378 28.9692 65.9798 28.6829C65.9145 28.3604 65.9183 28.0616 65.9912 27.7864C66.0671 27.5106 66.1992 27.2643 66.3874 27.0473C66.5757 26.8304 66.8086 26.6483 67.0863 26.5011C67.3633 26.3508 67.6736 26.2409 68.0172 26.1713C68.3999 26.0938 68.7425 26.0809 69.0447 26.1326C69.3494 26.1808 69.5996 26.2932 69.7954 26.47C69.9913 26.6469 70.1203 26.889 70.1826 27.1964C70.2094 27.329 70.2257 27.4637 70.2315 27.6006C70.2372 27.7375 70.2382 27.8816 70.2343 28.033L69.4613 28.1896C69.4664 28.0442 69.4655 27.9158 69.4586 27.8042C69.4541 27.6891 69.4408 27.5772 69.4188 27.4687C69.3566 27.1613 69.2123 26.9678 68.9859 26.8881C68.7596 26.8085 68.4566 26.8071 68.0768 26.884C67.7694 26.9463 67.5034 27.0425 67.2788 27.1727C67.0541 27.3029 66.8902 27.4694 66.787 27.6723C66.6831 27.8722 66.6593 28.1108 66.7155 28.388C66.7795 28.7045 66.9535 28.9281 67.2372 29.0589C67.5204 29.1866 67.883 29.281 68.3252 29.3421C68.6703 29.3883 68.9741 29.4632 69.2367 29.5669C69.4993 29.6706 69.7131 29.8124 69.8782 29.9923C70.0463 30.1716 70.1581 30.3984 70.2136 30.6726C70.3034 31.1157 70.2669 31.5168 70.1044 31.876C69.9442 32.2316 69.6878 32.5298 69.335 32.7707C68.9852 33.011 68.5692 33.1799 68.087 33.2776ZM74.2924 31.9267L73.5194 32.0833L73.5884 25.1277L75.4147 24.7578C75.8698 24.6656 76.2534 24.6695 76.5654 24.7695C76.8774 24.8694 77.1251 25.0389 77.3084 25.2779C77.4941 25.5132 77.6196 25.7921 77.6849 26.1146C77.7655 26.5124 77.7718 26.8845 77.7039 27.2308C77.6354 27.5741 77.5023 27.885 77.3046 28.1635C77.1062 28.439 76.8505 28.6712 76.5374 28.8601C76.2272 29.0484 75.8687 29.1838 75.4619 29.2662L74.3181 29.4978L74.2924 31.9267ZM74.3192 29.2011L73.9774 28.8609L75.3291 28.5871C75.7299 28.506 76.0618 28.3556 76.3248 28.136C76.5878 27.9165 76.7717 27.6471 76.8765 27.3278C76.9812 27.0085 76.9948 26.6575 76.9173 26.2748C76.8709 26.0457 76.7852 25.8623 76.66 25.7245C76.5372 25.5831 76.3678 25.4903 76.1518 25.4462C75.9388 25.4015 75.6741 25.4112 75.3577 25.4753L74.006 25.749L74.3557 25.2217L74.3192 29.2011ZM77.7994 31.2164L79.7047 23.8701L80.9072 23.6266L82.6637 30.2312L81.8997 30.386L80.3307 24.2657L80.3398 24.2639L78.6312 31.0479L77.7994 31.2164ZM78.7795 29.1778L78.7688 28.474L81.7479 27.8707L81.7587 28.5744L78.7795 29.1778ZM85.6136 29.7279C85.2308 29.8054 84.8868 29.8186 84.5815 29.7675C84.2756 29.7134 84.0242 29.5949 83.8271 29.412C83.6295 29.2262 83.4983 28.9735 83.4336 28.654C83.4037 28.5064 83.3868 28.3686 83.3828 28.2408C83.3819 28.1123 83.3846 27.9627 83.3908 27.7921L84.1593 27.6364C84.1519 27.8011 84.1501 27.9395 84.154 28.0516C84.1609 28.1632 84.175 28.2717 84.1964 28.3772C84.2611 28.6966 84.4063 28.9025 84.6321 28.9949C84.8609 29.0866 85.1667 29.0937 85.5494 29.0162C85.8749 28.9502 86.1569 28.8476 86.3954 28.7083C86.6332 28.566 86.8074 28.388 86.9178 28.1743C87.0276 27.9575 87.053 27.7029 86.9937 27.4106C86.9358 27.1243 86.7706 26.913 86.4983 26.7768C86.229 26.64 85.8808 26.5473 85.4537 26.4989C85.1286 26.4581 84.8287 26.3871 84.554 26.2858C84.2818 26.1809 84.0529 26.0343 83.8673 25.846C83.6847 25.6571 83.5644 25.4195 83.5064 25.1332C83.4411 24.8107 83.4449 24.5119 83.5178 24.2367C83.5937 23.9609 83.7258 23.7146 83.914 23.4976C84.1023 23.2807 84.3352 23.0986 84.6129 22.9514C84.8899 22.8011 85.2002 22.6912 85.5438 22.6216C85.9265 22.5441 86.2691 22.5312 86.5713 22.5829C86.876 22.631 87.1262 22.7435 87.322 22.9203C87.5179 23.0972 87.6469 23.3393 87.7092 23.6467C87.736 23.7793 87.7523 23.914 87.7581 24.0509C87.7638 24.1878 87.7648 24.3319 87.761 24.4833L86.9879 24.6399C86.993 24.4945 86.9921 24.3661 86.9852 24.2545C86.9807 24.1393 86.9674 24.0275 86.9454 23.919C86.8832 23.6116 86.7389 23.4181 86.5125 23.3384C86.2862 23.2588 85.9832 23.2574 85.6034 23.3343C85.296 23.3966 85.03 23.4928 84.8054 23.623C84.5808 23.7532 84.4168 23.9197 84.3136 24.1226C84.2097 24.3225 84.1859 24.5611 84.2421 24.8383C84.3062 25.1548 84.4801 25.3784 84.7638 25.5092C85.047 25.6369 85.4096 25.7313 85.8518 25.7924C86.1969 25.8386 86.5007 25.9135 86.7633 26.0172C87.0259 26.1209 87.2397 26.2627 87.4048 26.4426C87.5729 26.6219 87.6847 26.8487 87.7402 27.1229C87.83 27.566 87.7936 27.9671 87.631 28.3263C87.4708 28.6819 87.2144 28.9801 86.8616 29.221C86.5118 29.4613 86.0958 29.6302 85.6136 29.7279Z" fill="black"/>
<path d="M14.4918 75.5445L9.73526 76.5078L10.0189 47.9206L17.9897 46.3062L27.058 70.9298L26.7092 71.2132L26.9825 44.4849L31.7576 43.5178L31.474 72.105L23.3916 73.742L14.3718 49.1666L14.7615 48.8943L14.4918 75.5445ZM56.4118 56.6869C56.376 60.3305 55.497 63.2164 53.7746 65.3447C52.0646 67.4706 49.7294 68.8333 46.7689 69.4328C44.0067 69.9923 41.7669 69.8205 40.0495 68.9175C38.3297 68.0022 37.2251 66.3368 36.7359 63.9214C36.5503 63.0048 36.4426 62.0594 36.413 61.0854C36.3809 60.099 36.3715 58.8115 36.385 57.2227L36.6021 42.5366L41.5072 41.5432L41.3066 56.8835C41.2916 57.8279 41.2848 58.6223 41.2864 59.2667C41.3004 59.9086 41.3253 60.4774 41.3612 60.973C41.407 61.4537 41.48 61.9418 41.5804 62.4373C41.8513 63.7751 42.3666 64.6636 43.1261 65.103C43.898 65.5398 44.959 65.6215 46.3091 65.348C48.0433 64.9968 49.3352 64.2129 50.1849 62.9964C51.0469 61.7773 51.49 60.0177 51.5142 57.7175L51.6705 39.4848L56.5757 38.4913L56.4118 56.6869ZM80.6729 33.6108L89.1083 31.9024L88.8247 60.4897L84.1797 61.4304L84.4266 36.1001L84.527 36.1184L78.3827 62.6045L71.8425 63.9291L66.1289 39.8253L66.2477 39.7432L65.9897 65.1145L61.3261 66.059L61.6097 37.4717L69.8222 35.8085L75.1838 60.4671L74.8494 60.5348L80.6729 33.6108ZM96.8406 34.3982L99.0603 31.4148L98.9599 43.6208L97.8265 42.3223L108.064 40.2488L108.055 44.3125L97.7992 46.3897L98.9363 44.6507L98.8324 56.9347L96.6301 54.8469L110.026 52.1338L109.98 56.2049L93.8901 59.4637L94.1737 30.8765L110.264 27.6177L110.218 31.6888L96.8406 34.3982ZM99.6102 28.2087L103.993 23.4912L108.081 22.6634L103.252 27.4711L99.6102 28.2087ZM114.756 55.2376L115.04 26.6504L125.445 24.543C127.873 24.0513 129.748 24.2066 131.071 25.009C132.394 25.8113 133.226 27.0547 133.567 28.7393C133.768 29.7303 133.809 30.76 133.69 31.8286C133.571 32.8971 133.306 33.9115 132.895 34.8717C132.481 35.8195 131.926 36.6475 131.231 37.3556C130.549 38.0611 129.74 38.5539 128.803 38.8337C129.433 38.7579 130.025 38.7862 130.581 38.9186C131.146 39.0362 131.634 39.3114 132.044 39.7442C132.464 40.162 132.755 40.7735 132.918 41.5787C132.994 41.9503 133.033 42.4322 133.037 43.0246C133.053 43.6145 133.05 44.2663 133.027 44.9802C133.016 45.6916 133.006 46.403 132.995 47.1144C132.982 47.8133 132.978 48.4652 132.985 49.07C133.004 49.6722 133.051 50.1591 133.126 50.5307C133.169 50.7413 133.22 50.9308 133.28 51.0992C133.337 51.2552 133.399 51.3715 133.467 51.4482L128.543 52.4454C128.416 52.2648 128.311 51.9701 128.228 51.5614C128.158 51.2145 128.12 50.771 128.114 50.2306C128.105 49.6779 128.108 49.0905 128.124 48.4684C128.138 47.8338 128.152 47.2055 128.168 46.5833C128.184 45.9611 128.184 45.3873 128.167 44.8619C128.161 44.3216 128.125 43.8904 128.06 43.5684C127.892 42.7385 127.484 42.1892 126.837 41.9206C126.187 41.6397 125.335 41.6058 124.282 41.819L117.463 43.2001L119.678 41.2428L119.532 54.2705L114.756 55.2376ZM119.687 40.1386L117.454 39.1402L124.44 37.7253C125.406 37.5296 126.244 37.1149 126.954 36.4811C127.661 35.835 128.176 35.0666 128.498 34.176C128.818 33.273 128.877 32.3199 128.674 31.3166C128.475 30.338 128.039 29.6141 127.363 29.1448C126.686 28.6631 125.721 28.549 124.47 28.8024L117.614 30.1909L119.804 27.2522L119.687 40.1386ZM137.89 50.5523L138.174 21.965L143.061 20.9753L142.796 49.5588L137.89 50.5523ZM156.617 47.185C154.97 47.5187 153.465 47.5719 152.104 47.3447C150.743 47.1175 149.608 46.606 148.699 45.8101C147.789 45.0142 147.194 43.9226 146.913 42.5353C146.793 41.9407 146.728 41.3993 146.72 40.9111C146.711 40.4228 146.719 39.8862 146.742 39.3012L151.629 38.3115C151.608 38.8444 151.605 39.3092 151.621 39.7057C151.634 40.0898 151.676 40.4553 151.746 40.8022C151.959 41.855 152.451 42.5615 153.22 42.9215C154.001 43.279 155.055 43.3235 156.38 43.055C157.446 42.8393 158.383 42.5012 159.192 42.0407C160.002 41.5802 160.6 41.0012 160.987 40.3038C161.375 39.6064 161.475 38.7931 161.286 37.8641C161.083 36.8608 160.43 36.1164 159.325 35.6308C158.234 35.1427 156.845 34.7792 155.159 34.5404C153.912 34.3675 152.726 34.0853 151.602 33.694C150.489 33.2877 149.54 32.7125 148.758 31.9684C147.973 31.2118 147.457 30.2266 147.211 29.0127C146.928 27.613 146.953 26.3055 147.287 25.0902C147.634 23.8724 148.225 22.7791 149.06 21.8105C149.908 20.8393 150.942 20.0238 152.162 19.364C153.393 18.6893 154.757 18.2002 156.256 17.8966C157.916 17.5605 159.42 17.5072 160.769 17.7369C162.13 17.9641 163.257 18.4645 164.148 19.2382C165.04 20.0118 165.618 21.0489 165.881 22.3495C165.989 22.8821 166.052 23.4173 166.071 23.9552C166.087 24.4806 166.085 24.9775 166.063 25.446L161.177 26.4357C161.186 26.0342 161.182 25.6351 161.166 25.2386C161.151 24.8421 161.105 24.458 161.03 24.0864C160.827 23.0831 160.345 22.4262 159.586 22.1157C158.827 21.8053 157.797 21.7818 156.497 22.0452C155.456 22.2559 154.55 22.5878 153.777 23.0407C153.015 23.4788 152.451 24.0379 152.086 24.7179C151.733 25.3954 151.651 26.1987 151.839 27.1277C152.05 28.1681 152.704 28.9126 153.8 29.361C154.897 29.8095 156.297 30.1642 158 30.4253C159.414 30.6548 160.679 30.9789 161.795 31.3976C162.921 31.8013 163.85 32.3741 164.58 33.1159C165.308 33.8453 165.792 34.8045 166.033 35.9937C166.42 37.9012 166.247 39.6255 165.514 41.1665C164.779 42.695 163.634 43.978 162.077 45.0154C160.518 46.0403 158.698 46.7635 156.617 47.185ZM172.939 18.9858L175.159 16.0024L175.058 28.2083L173.925 26.9099L184.163 24.8364L184.154 28.9L173.898 30.9773L175.035 29.2382L174.931 41.5223L172.729 39.4345L186.125 36.7213L186.079 40.7925L169.989 44.0513L170.272 15.464L186.363 12.2052L186.317 16.2764L172.939 18.9858ZM175.709 12.7963L180.092 8.07879L184.179 7.25091L179.35 12.0587L175.709 12.7963ZM194.119 39.7057C193.351 39.8613 192.647 39.7266 192.006 39.3019C191.366 38.8771 190.968 38.2808 190.812 37.5128C190.659 36.7572 190.795 36.0592 191.22 35.4187C191.642 34.7658 192.237 34.3615 193.005 34.206C193.761 34.053 194.46 34.195 195.103 34.6322C195.756 35.0544 196.159 35.6433 196.312 36.3989C196.467 37.1669 196.327 37.8724 195.89 38.5154C195.465 39.1559 194.875 39.5527 194.119 39.7057Z" fill="black"/>
<path d="M10.1135 85.4203L169.881 52.8751" stroke="black" stroke-width="2.13233"/>
</svg>
