<svg width="200" height="76" viewBox="0 0 200 76" fill="none" xmlns="http://www.w3.org/2000/svg">
<path d="M182.149 22.8382C181 19.5961 179.086 16.6877 176.454 14.0177C174.348 12.0151 171.811 10.4894 168.796 9.39281C165.781 8.2962 162.479 7.77173 158.938 7.77173C149.988 7.77173 142.714 11.1569 137.162 17.8796C132.759 11.1569 126.202 7.77173 117.444 7.77173L117.492 7.81941C117.109 7.81941 116.726 7.77173 116.296 7.77173C107.346 7.77173 100.072 11.1569 94.5202 17.8796C90.1172 11.1569 83.5606 7.77173 74.8026 7.77173L74.8504 7.81941C74.5154 7.81941 74.1804 7.77173 73.8454 7.77173H73.7018C64.8002 7.77173 57.5736 11.1092 52.022 17.7366C51.1606 16.4493 50.1555 15.2096 48.9591 14.0653C48.4326 13.5885 47.9062 13.1118 47.3319 12.6826C43.3597 9.44049 38.3345 7.77173 32.2087 7.77173H32.1608C32.0651 7.77173 31.9215 7.77173 31.8258 7.77173C31.6822 7.77173 31.5386 7.77173 31.4429 7.77173C24.5035 7.77173 18.569 9.82192 13.6875 13.8746V8.58227H0V53.7341H0.0957167H13.9746H14.0703V34.9487C14.0703 32.4694 14.4532 30.3238 15.2189 28.4643C15.9847 26.6049 17.0376 25.0791 18.3297 23.8395C19.9569 22.4091 21.8234 21.4079 23.8335 20.8357C23.977 20.7881 24.1206 20.7404 24.2163 20.7404C24.2642 20.7404 24.312 20.7404 24.4077 20.6927C25.6999 20.4066 26.9921 20.2159 28.38 20.2159C32.3044 20.2159 35.5587 21.4556 38.2867 23.8872C40.9667 26.3665 42.3068 30.2285 42.3068 35.6162V53.7341H42.3546H42.4025H56.2814H56.3293H56.3771V34.2812C56.425 32.0879 56.8078 30.1331 57.5257 28.4167C58.2914 26.5572 59.3443 24.9838 60.6844 23.7918C62.0244 22.5522 63.5559 21.6463 65.2788 21.0741C67.0017 20.502 68.8203 20.2159 70.7346 20.1682C74.659 20.1682 77.9612 21.4079 80.6413 23.8395C83.3214 26.3188 84.6614 30.2285 84.6614 35.5685V53.6865H84.7093H84.8528H98.5882H98.636H98.7796V34.9487C98.7796 32.4694 99.1625 30.3238 99.9282 28.4643C100.694 26.6049 101.747 25.0315 103.087 23.8395C104.427 22.5998 105.958 21.6939 107.681 21.1218C109.404 20.5497 111.223 20.2159 113.137 20.2159C117.061 20.2159 120.364 21.4556 123.092 23.8872C125.772 26.3665 127.112 30.2761 127.112 35.6162V53.7341H127.495H141.182H141.517V34.9487C141.517 32.4694 141.9 30.3238 142.666 28.4643C143.431 26.6049 144.484 25.0315 145.824 23.8395C147.164 22.5998 148.696 21.6939 150.419 21.1218C152.142 20.5497 153.96 20.2159 155.922 20.2159C159.847 20.2159 163.149 21.4556 165.877 23.8872C168.605 26.3188 169.897 30.2761 169.897 35.6162V53.7341H183.872V33.566C183.872 29.6563 183.297 26.0804 182.149 22.8382Z" fill="black"/>
<path d="M200 7.91469C200 12.2535 196.459 15.8294 192.056 15.8294C187.7 15.8294 184.111 12.3011 184.111 7.91469C184.111 3.52824 187.653 0 192.056 0C196.459 0 200 3.52824 200 7.91469Z" fill="black"/>
<path d="M94.9989 72.1857C94.9989 72.8055 94.9032 73.3777 94.7118 73.8544C94.5203 74.3312 94.2332 74.7127 93.8503 75.0464C93.4674 75.3802 93.0367 75.6186 92.5581 75.7616C92.0795 75.9046 91.5052 76 90.8831 76H85.5229V61.9824H90.6917C91.266 61.9824 91.7924 62.0778 92.3188 62.2208C92.8453 62.4115 93.2281 62.6499 93.611 62.936C93.9939 63.2697 94.281 63.6512 94.4725 64.0803C94.6639 64.5094 94.7596 65.0339 94.7596 65.606C94.7596 66.3689 94.5682 66.9887 94.1853 67.5608C93.8024 68.133 93.276 68.5144 92.5581 68.7528C93.3239 69.0389 93.8982 69.4203 94.3289 70.0401C94.8075 70.66 94.9989 71.3751 94.9989 72.1857ZM93.7067 65.6537C93.7067 65.1769 93.611 64.7478 93.4674 64.414C93.3239 64.0803 93.0846 63.7942 92.7974 63.5558C92.5103 63.3651 92.1753 63.1744 91.7924 63.079C91.4095 62.9837 91.0267 62.936 90.5959 62.936H86.5758V68.3714H90.5959C91.0267 68.3714 91.4095 68.3237 91.7924 68.2284C92.1753 68.133 92.5103 67.9423 92.7974 67.7516C93.0846 67.5132 93.3239 67.2748 93.4674 66.8933C93.611 66.5596 93.7067 66.1305 93.7067 65.6537ZM93.946 72.1857C93.946 71.2798 93.6589 70.5646 93.0846 70.0878C92.5103 69.5634 91.7445 69.325 90.7874 69.325H86.6237V75.0941H90.7874C91.7445 75.0941 92.5103 74.8557 93.0846 74.3312C93.6589 73.8068 93.946 73.0916 93.946 72.1857Z" fill="black"/>
<path d="M109.883 68.9912C109.883 69.754 109.883 70.4692 109.883 71.0414C109.883 71.6135 109.835 72.0903 109.739 72.5671C109.643 73.0439 109.548 73.3776 109.356 73.7114C109.165 74.0451 108.926 74.3789 108.591 74.7126C108.112 75.1894 107.586 75.5232 106.963 75.7616C106.341 76 105.719 76.143 105.049 76.143C104.379 76.143 103.709 76 103.135 75.7616C102.513 75.5232 101.986 75.1417 101.508 74.7126C101.173 74.3789 100.933 74.0451 100.742 73.7114C100.55 73.3776 100.455 72.9962 100.359 72.5671C100.263 72.138 100.215 71.6135 100.215 71.0414C100.215 70.4692 100.215 69.8017 100.215 68.9912C100.215 68.1806 100.215 67.5131 100.215 66.941C100.215 66.3688 100.263 65.8921 100.359 65.4153C100.455 64.9385 100.598 64.6047 100.742 64.271C100.933 63.9372 101.173 63.6035 101.508 63.2697C101.986 62.7929 102.513 62.4592 103.135 62.2208C103.757 61.9824 104.379 61.8394 105.049 61.8394C105.719 61.8394 106.341 61.9824 106.963 62.2208C107.586 62.4592 108.112 62.8406 108.591 63.2697C108.926 63.6035 109.165 63.9372 109.356 64.271C109.548 64.6047 109.643 64.9862 109.739 65.4153C109.835 65.8444 109.883 66.3688 109.883 66.941C109.883 67.5131 109.883 68.2283 109.883 68.9912ZM108.83 68.9912C108.83 68.2283 108.83 67.6085 108.782 67.084C108.782 66.5596 108.734 66.0828 108.638 65.7013C108.591 65.3199 108.447 64.9862 108.303 64.7001C108.16 64.414 107.968 64.1756 107.729 63.8895C107.394 63.5558 106.963 63.2697 106.485 63.079C106.006 62.8883 105.528 62.7929 105.049 62.7929C104.523 62.7929 104.044 62.8883 103.613 63.079C103.135 63.2697 102.752 63.5081 102.369 63.8895C102.13 64.1279 101.938 64.414 101.795 64.7001C101.651 64.9862 101.555 65.3199 101.46 65.7013C101.364 66.0828 101.364 66.5596 101.316 67.084C101.268 67.6085 101.268 68.276 101.268 68.9912C101.268 69.754 101.268 70.3739 101.316 70.8983C101.316 71.4228 101.364 71.8996 101.46 72.281C101.508 72.6625 101.651 72.9962 101.795 73.2823C101.938 73.5683 102.13 73.8067 102.369 74.0928C102.704 74.4266 103.135 74.7126 103.613 74.9034C104.092 75.0941 104.57 75.1894 105.049 75.1894C105.528 75.1894 106.054 75.0941 106.485 74.9034C106.963 74.7126 107.346 74.4742 107.729 74.0928C107.968 73.8544 108.16 73.5683 108.303 73.2823C108.447 72.9962 108.543 72.6625 108.638 72.281C108.686 71.8996 108.734 71.4228 108.782 70.8983C108.83 70.3739 108.83 69.754 108.83 68.9912Z" fill="black"/>
<path d="M120.603 69.5634H116.726V76.0477H115.674V61.9824H121.034C121.608 61.9824 122.134 62.0778 122.613 62.2208C123.092 62.4115 123.522 62.6499 123.905 62.936C124.288 63.2697 124.575 63.6512 124.767 64.128C124.958 64.6048 125.054 65.1292 125.054 65.749C125.054 66.798 124.767 67.6562 124.192 68.3237C123.618 68.9912 122.804 69.3726 121.847 69.5634L125.245 76.0477H123.953L120.603 69.5634ZM124.001 65.749C124.001 64.7955 123.714 64.0803 123.139 63.6035C122.565 63.1267 121.799 62.936 120.89 62.936H116.726V68.6098H120.89C121.799 68.6098 122.565 68.3714 123.139 67.9423C123.714 67.4655 124.001 66.7503 124.001 65.749Z" fill="black"/>
<path d="M140.273 68.8005C140.273 69.2773 140.273 69.8017 140.273 70.3262C140.273 70.8507 140.225 71.4228 140.129 71.9473C140.034 72.4718 139.89 72.9962 139.699 73.473C139.507 73.9498 139.22 74.3789 138.885 74.7127C138.024 75.5709 136.875 76 135.343 76H130.653V61.9824H135.391C136.875 61.9824 138.071 62.4115 138.933 63.2697C139.268 63.6035 139.555 64.0326 139.746 64.4617C139.938 64.8908 140.081 65.3676 140.177 65.8444C140.273 66.3212 140.321 66.798 140.321 67.3224C140.273 67.8469 140.273 68.3237 140.273 68.8005ZM139.22 68.8005C139.22 68.4191 139.22 67.99 139.22 67.5608C139.22 67.1317 139.172 66.7026 139.124 66.2735C139.076 65.8444 138.981 65.4153 138.837 65.0339C138.694 64.6524 138.502 64.3187 138.215 64.0326C137.784 63.6035 137.353 63.3174 136.827 63.1744C136.301 63.0314 135.774 62.936 135.2 62.936H131.802V75.0941H135.2C135.774 75.0941 136.301 74.9987 136.827 74.8557C137.353 74.7127 137.832 74.4266 138.215 73.9975C138.502 73.7114 138.694 73.33 138.837 72.9009C138.981 72.4718 139.076 71.995 139.124 71.5182C139.172 71.0414 139.22 70.5646 139.22 70.0878C139.172 69.6587 139.22 69.1819 139.22 68.8005Z" fill="black"/>
<path d="M146.064 61.9824H154.582V62.936H147.117V68.4667H153.482V69.4203H147.117V75.0941H154.582V76H146.064V61.9824Z" fill="black"/>
<path d="M166.93 72.6147H160.373L159.129 76.0476H157.98L163.149 62.03H164.106L169.275 76.0476H168.126L166.93 72.6147ZM160.708 71.6611H166.595L163.628 63.4127L160.708 71.6611Z" fill="black"/>
<path d="M183.202 71.4705C183.202 72.138 183.106 72.8055 182.819 73.33C182.532 73.8544 182.245 74.3789 181.814 74.808C181.383 75.2371 180.857 75.5709 180.282 75.7616C179.708 76 179.038 76.0954 178.32 76.0954C177.602 76.0954 176.932 76 176.358 75.7616C175.784 75.5232 175.257 75.1895 174.826 74.808C174.396 74.3789 174.061 73.9021 173.821 73.33C173.582 72.7578 173.486 72.138 173.486 71.4705V61.9824H174.539V71.3275C174.539 71.8996 174.635 72.4241 174.826 72.9009C175.018 73.3777 175.257 73.8068 175.592 74.1405C175.927 74.4743 176.31 74.7127 176.789 74.9034C177.267 75.0941 177.746 75.1895 178.32 75.1895C178.894 75.1895 179.421 75.0941 179.852 74.9034C180.33 74.7127 180.713 74.4743 181.048 74.1405C181.383 73.8068 181.622 73.3777 181.814 72.9009C182.005 72.4241 182.053 71.8996 182.053 71.3275V61.9824H183.106L183.202 71.4705Z" fill="black"/>
<path d="M192.391 69.7541L188.753 76H187.509L191.864 68.8005L187.796 61.9824H189.041L192.391 67.8946L195.789 61.9824H197.033L192.965 68.8005L197.368 76H196.076L192.391 69.7541Z" fill="black"/>
</svg>
